<svg width="16" height="16" viewBox="0 0 16 16" fill="none" xmlns="http://www.w3.org/2000/svg">
<path d="M13.7337 4.75774C14.0642 4.42738 14.2498 3.97928 14.2499 3.51202C14.2499 3.04476 14.0644 2.59662 13.734 2.26618C13.4037 1.93573 12.9556 1.75006 12.4883 1.75C12.021 1.74994 11.5729 1.9355 11.2425 2.26586L2.90121 10.609C2.7561 10.7537 2.64878 10.9318 2.58871 11.1277L1.76308 13.8477C1.74693 13.9018 1.74571 13.9592 1.75955 14.0139C1.7734 14.0686 1.80178 14.1185 1.84171 14.1584C1.88163 14.1982 1.9316 14.2265 1.98631 14.2403C2.04102 14.254 2.09843 14.2527 2.15246 14.2365L4.87308 13.4115C5.06882 13.352 5.24694 13.2453 5.39183 13.1009L13.7337 4.75774Z" stroke="white" stroke-width="1.25" stroke-linecap="round" stroke-linejoin="round"/>
<path d="M9.875 3.625L12.375 6.125" stroke="white" stroke-width="1.25" stroke-linecap="round" stroke-linejoin="round"/>
</svg>
