<svg width="2020" height="630" viewBox="0 0 2020 630" fill="none" xmlns="http://www.w3.org/2000/svg">
<line x1="568.494" y1="75.9198" x2="648.494" y2="567.92" stroke="black"/>
<line x1="569.079" y1="76.4938" x2="280.079" y2="122.494" stroke="black"/>
<line x1="600" y1="577.5" x2="416.001" y2="577.473" stroke="black"/>
<line x1="280.27" y1="122.421" x2="213.27" y2="165.421" stroke="black"/>
<line x1="562.085" y1="51.4926" x2="124.085" y2="127.493" stroke="black"/>
<line x1="393.577" y1="557.266" x2="123.577" y2="127.266" stroke="black"/>
<line x1="393.337" y1="556.631" x2="416.337" y2="577.631" stroke="black"/>
<line x1="649.09" y1="568.492" x2="600.09" y2="577.492" stroke="black"/>
<path d="M637.082 241.602L637.84 241.484L645.502 245.054L644.772 240.354L645.698 240.21L646.623 246.156L645.865 246.274L638.202 242.704L638.933 247.404L638.007 247.548L637.082 241.602ZM638.334 249.653L638.164 248.558L647.28 250.383L647.448 251.461L639.317 255.969L639.146 254.874L646.005 251.168L645.994 251.101L638.334 249.653ZM641.766 249.533L642.452 253.946L641.526 254.09L640.839 249.677L641.766 249.533ZM648.149 255.971L648.343 257.218L641.64 261.261L641.656 261.363L649.27 263.18L649.464 264.426L640.84 265.767L640.689 264.791L647.24 263.772L647.227 263.687L640.256 262.011L640.11 261.068L646.242 257.354L646.229 257.27L639.677 258.289L639.526 257.312L648.149 255.971ZM646.609 274.467C645.7 274.608 644.888 274.566 644.175 274.341C643.461 274.116 642.88 273.744 642.432 273.228C641.984 272.711 641.702 272.085 641.588 271.349C641.473 270.614 641.551 269.932 641.822 269.303C642.092 268.675 642.533 268.145 643.144 267.713C643.756 267.282 644.516 266.995 645.425 266.854C646.335 266.712 647.147 266.754 647.86 266.98C648.574 267.205 649.155 267.576 649.603 268.093C650.051 268.61 650.333 269.236 650.447 269.971C650.562 270.707 650.484 271.389 650.213 272.017C649.943 272.646 649.502 273.176 648.891 273.607C648.279 274.039 647.519 274.325 646.609 274.467ZM646.452 273.456C647.199 273.34 647.81 273.117 648.285 272.788C648.76 272.461 649.097 272.065 649.295 271.6C649.493 271.138 649.552 270.646 649.47 270.123C649.389 269.601 649.184 269.149 648.854 268.766C648.524 268.386 648.083 268.111 647.531 267.941C646.979 267.774 646.329 267.748 645.583 267.864C644.836 267.981 644.225 268.202 643.75 268.529C643.275 268.859 642.938 269.255 642.74 269.717C642.542 270.182 642.483 270.675 642.565 271.197C642.646 271.719 642.851 272.171 643.181 272.551C643.51 272.933 643.951 273.208 644.503 273.376C645.056 273.546 645.706 273.572 646.452 273.456ZM642.571 276.893L651.194 275.552L651.648 278.466C651.752 279.14 651.723 279.711 651.56 280.179C651.4 280.646 651.137 281.015 650.771 281.285C650.404 281.555 649.967 281.729 649.459 281.808C648.951 281.887 648.484 281.853 648.059 281.707C647.634 281.56 647.275 281.289 646.984 280.895C646.695 280.5 646.499 279.968 646.395 279.3L646.028 276.942L646.972 276.795L647.333 279.12C647.405 279.58 647.53 279.94 647.708 280.2C647.887 280.463 648.11 280.638 648.376 280.726C648.646 280.816 648.954 280.834 649.299 280.781C649.644 280.727 649.936 280.615 650.174 280.446C650.413 280.277 650.58 280.039 650.676 279.734C650.775 279.428 650.788 279.042 650.716 278.576L650.43 276.741L642.733 277.938L642.571 276.893ZM647.076 280.35L643.532 283.075L643.343 281.862L646.893 279.171L647.076 280.35ZM643.805 284.832L643.635 283.737L652.751 285.562L652.919 286.64L644.788 291.148L644.617 290.053L651.476 286.347L651.465 286.28L643.805 284.832ZM647.237 284.712L647.923 289.125L646.997 289.269L646.31 284.856L647.237 284.712ZM655.019 300.144L655.181 301.188L649.471 302.076C648.882 302.168 648.334 302.111 647.828 301.905C647.324 301.701 646.9 301.369 646.556 300.908C646.214 300.447 645.99 299.878 645.885 299.201C645.78 298.525 645.82 297.915 646.006 297.371C646.194 296.827 646.497 296.38 646.914 296.031C647.335 295.684 647.839 295.464 648.429 295.373L654.139 294.485L654.301 295.529L648.676 296.404C648.255 296.469 647.894 296.62 647.595 296.857C647.298 297.093 647.082 297.396 646.947 297.768C646.816 298.142 646.787 298.569 646.862 299.049C646.936 299.529 647.093 299.928 647.332 300.244C647.574 300.56 647.872 300.784 648.226 300.916C648.583 301.05 648.972 301.084 649.393 301.019L655.019 300.144ZM656.569 310.112L647.945 311.453L647.788 310.442L653.828 304.69L653.815 304.606L647.044 305.659L646.882 304.615L655.506 303.274L655.663 304.284L649.608 310.056L649.622 310.14L656.409 309.084L656.569 310.112ZM648.684 316.204L648.27 313.543L656.894 312.201L657.326 314.981C657.456 315.817 657.395 316.56 657.142 317.209C656.892 317.857 656.471 318.39 655.877 318.807C655.286 319.224 654.545 319.501 653.652 319.64C652.754 319.78 651.956 319.74 651.257 319.521C650.562 319.301 649.993 318.913 649.549 318.355C649.109 317.797 648.821 317.08 648.684 316.204ZM649.359 314.443L649.6 315.992C649.711 316.705 649.941 317.275 650.289 317.701C650.637 318.127 651.082 318.416 651.626 318.567C652.17 318.718 652.793 318.739 653.495 318.63C654.191 318.521 654.773 318.315 655.24 318.009C655.71 317.703 656.044 317.303 656.244 316.809C656.446 316.315 656.494 315.731 656.389 315.057L656.13 313.39L649.359 314.443ZM649.596 322.065L658.219 320.724L659.029 325.928L658.102 326.073L657.456 321.912L654.542 322.366L655.147 326.256L654.22 326.4L653.615 322.51L650.685 322.965L651.342 327.193L650.416 327.337L649.596 322.065ZM650.698 329.152L659.322 327.811L659.775 330.725C659.88 331.398 659.85 331.969 659.687 332.437C659.527 332.905 659.264 333.274 658.898 333.543C658.531 333.813 658.094 333.987 657.586 334.066C657.078 334.145 656.611 334.112 656.186 333.965C655.761 333.818 655.402 333.548 655.111 333.153C654.822 332.758 654.626 332.227 654.522 331.559L654.156 329.201L655.099 329.054L655.46 331.378C655.532 331.839 655.657 332.199 655.835 332.458C656.014 332.721 656.237 332.896 656.504 332.984C656.774 333.074 657.081 333.093 657.426 333.039C657.772 332.985 658.063 332.874 658.302 332.705C658.54 332.535 658.707 332.298 658.803 331.993C658.902 331.687 658.916 331.301 658.843 330.835L658.558 328.999L650.86 330.196L650.698 329.152ZM655.203 332.609L651.659 335.333L651.471 334.121L655.02 331.43L655.203 332.609ZM651.878 336.736L660.501 335.395L660.954 338.309C661.06 338.986 661.023 339.558 660.846 340.025C660.672 340.495 660.395 340.866 660.014 341.138C659.634 341.41 659.19 341.585 658.682 341.664C658.173 341.743 657.695 341.711 657.248 341.568C656.8 341.428 656.42 341.162 656.106 340.771C655.795 340.379 655.587 339.848 655.483 339.177L655.158 337.089L656.085 336.945L656.404 339C656.476 339.463 656.614 339.822 656.818 340.078C657.021 340.334 657.269 340.504 657.561 340.588C657.856 340.674 658.176 340.69 658.522 340.637C658.867 340.583 659.166 340.47 659.418 340.299C659.671 340.13 659.852 339.892 659.962 339.585C660.076 339.277 660.096 338.888 660.023 338.42L659.737 336.584L652.04 337.781L651.878 336.736ZM652.966 343.737L652.796 342.642L661.912 344.467L662.08 345.545L653.949 350.053L653.778 348.958L660.637 345.252L660.626 345.185L652.966 343.737ZM656.398 343.617L657.084 348.03L656.158 348.174L655.471 343.761L656.398 343.617ZM661.359 355.106C661.777 354.989 662.077 354.733 662.257 354.337C662.437 353.941 662.486 353.482 662.405 352.96C662.345 352.578 662.232 352.254 662.064 351.987C661.896 351.722 661.692 351.527 661.451 351.4C661.21 351.277 660.952 351.236 660.677 351.279C660.447 351.315 660.258 351.401 660.109 351.536C659.964 351.673 659.85 351.838 659.767 352.029C659.688 352.219 659.628 352.416 659.587 352.617C659.549 352.819 659.522 353.003 659.505 353.169L659.405 354.082C659.381 354.316 659.339 354.578 659.278 354.869C659.217 355.163 659.116 355.451 658.976 355.731C658.839 356.014 658.644 356.26 658.392 356.469C658.14 356.678 657.812 356.814 657.408 356.877C656.942 356.949 656.501 356.892 656.087 356.707C655.674 356.524 655.32 356.217 655.025 355.785C654.732 355.356 654.533 354.811 654.43 354.148C654.334 353.531 654.351 352.98 654.48 352.498C654.609 352.017 654.832 351.62 655.148 351.307C655.465 350.996 655.857 350.787 656.323 350.68L656.491 351.758C656.169 351.837 655.917 351.988 655.733 352.212C655.553 352.438 655.434 352.707 655.376 353.018C655.321 353.331 655.32 353.659 655.373 354.002C655.435 354.4 655.556 354.748 655.734 355.045C655.915 355.342 656.137 355.565 656.399 355.714C656.663 355.862 656.953 355.912 657.267 355.863C657.554 355.819 657.774 355.703 657.929 355.515C658.084 355.327 658.197 355.093 658.269 354.815C658.34 354.536 658.395 354.239 658.432 353.923L658.57 352.814C658.659 352.111 658.852 351.534 659.15 351.085C659.449 350.637 659.888 350.367 660.469 350.277C660.952 350.201 661.394 350.266 661.794 350.472C662.197 350.679 662.532 350.989 662.801 351.402C663.072 351.817 663.251 352.299 663.336 352.849C663.423 353.405 663.4 353.915 663.268 354.378C663.139 354.841 662.922 355.225 662.619 355.531C662.316 355.84 661.949 356.035 661.516 356.117L661.359 355.106ZM662.535 362.668C662.953 362.551 663.253 362.294 663.433 361.898C663.613 361.502 663.662 361.043 663.581 360.521C663.521 360.14 663.408 359.815 663.24 359.548C663.072 359.284 662.868 359.088 662.627 358.962C662.386 358.838 662.128 358.798 661.853 358.841C661.623 358.876 661.433 358.962 661.285 359.097C661.14 359.235 661.026 359.399 660.943 359.59C660.864 359.781 660.804 359.977 660.763 360.179C660.725 360.38 660.698 360.564 660.681 360.731L660.581 361.643C660.557 361.877 660.515 362.14 660.453 362.431C660.393 362.725 660.292 363.012 660.152 363.293C660.015 363.576 659.82 363.822 659.568 364.03C659.316 364.239 658.988 364.375 658.583 364.438C658.117 364.51 657.677 364.454 657.263 364.268C656.85 364.085 656.496 363.778 656.201 363.347C655.908 362.918 655.709 362.372 655.606 361.71C655.51 361.092 655.527 360.542 655.656 360.059C655.785 359.579 656.008 359.182 656.324 358.868C656.641 358.557 657.033 358.348 657.499 358.241L657.667 359.319C657.345 359.398 657.093 359.549 656.909 359.773C656.729 360 656.61 360.269 656.552 360.579C656.497 360.893 656.496 361.221 656.549 361.563C656.611 361.962 656.732 362.31 656.91 362.607C657.091 362.903 657.313 363.126 657.575 363.275C657.839 363.424 658.129 363.474 658.443 363.425C658.729 363.38 658.95 363.264 659.105 363.076C659.26 362.888 659.373 362.655 659.444 362.376C659.516 362.098 659.571 361.8 659.608 361.484L659.746 360.376C659.835 359.672 660.028 359.096 660.326 358.647C660.625 358.198 661.064 357.928 661.645 357.838C662.128 357.763 662.57 357.828 662.969 358.033C663.373 358.241 663.708 358.551 663.977 358.963C664.248 359.378 664.427 359.861 664.512 360.411C664.599 360.967 664.576 361.476 664.444 361.94C664.315 362.402 664.098 362.787 663.795 363.093C663.492 363.401 663.125 363.597 662.692 363.678L662.535 362.668Z" fill="black"/>
<line x1="649.918" y1="11.5068" x2="715.918" y2="0.506804" stroke="black"/>
<line x1="716.044" y1="0.50198" x2="1265.04" y2="49.502" stroke="black"/>
<line x1="750.999" y1="628.5" x2="1257" y2="627.5" stroke="black"/>
<line x1="750.506" y1="629.08" x2="650.506" y2="11.0799" stroke="black"/>
<line x1="1264.5" y1="49.0491" x2="1256.5" y2="130.049" stroke="black"/>
<line x1="1308.5" y1="54.0491" x2="1300.5" y2="135.049" stroke="black"/>
<line x1="1308.04" y1="53.5019" x2="2001.04" y2="114.589" stroke="black"/>
<line x1="1256.5" y1="628" x2="1256.5" y2="130" stroke="black"/>
<line x1="1300.5" y1="135" x2="1300.55" y2="628.002" stroke="black"/>
<line x1="2000.5" y1="113.999" x2="2001.51" y2="628.999" stroke="black"/>
<line x1="2002" y1="628.5" x2="1300" y2="628.5" stroke="black"/>
<line x1="124.165" y1="127.472" x2="1.16501" y2="170.472" stroke="black"/>
<line x1="306.585" y1="625.279" x2="0.585104" y2="170.279" stroke="black"/>
<line x1="305.946" y1="625.503" x2="369.946" y2="618.503" stroke="black"/>
<line x1="653.993" y1="622.5" x2="369.993" y2="618.5" stroke="black"/>
<line x1="582.072" y1="396.495" x2="520.072" y2="405.495" stroke="black"/>
<line x1="510.493" y1="343.919" x2="520.493" y2="404.919" stroke="black"/>
<line x1="509.92" y1="343.506" x2="571.92" y2="333.506" stroke="black"/>
<line x1="566.494" y1="333.922" x2="576.494" y2="396.922" stroke="#929292"/>
<line x1="560.494" y1="335.92" x2="570.494" y2="397.92" stroke="#929292"/>
<line x1="554.494" y1="336.92" x2="564.494" y2="398.92" stroke="#929292"/>
<line x1="548.494" y1="337.92" x2="558.494" y2="399.92" stroke="#929292"/>
<line x1="542.494" y1="338.92" x2="552.494" y2="400.92" stroke="#929292"/>
<line x1="536.494" y1="338.922" x2="546.494" y2="401.922" stroke="#929292"/>
<line x1="577.082" y1="364.493" x2="541.082" y2="370.493" stroke="black"/>
<path d="M123.518 129.645L393.163 559L416.163 579.5V618.5L370 617.5L307 624.5L3.01799 170.645L123.518 129.645Z" fill="#ECECEC"/>
<line x1="1152.04" y1="20.5019" x2="1266.04" y2="30.5019" stroke="black"/>
<line x1="1152.5" y1="21.0552" x2="1150.5" y2="39.0552" stroke="black"/>
<line x1="1264.5" y1="48.9477" x2="1266.5" y2="29.9477" stroke="black"/>
<line x1="1168.5" y1="22.0523" x2="1166.5" y2="41.0523" stroke="black"/>
<line x1="1171.5" y1="22.0523" x2="1169.5" y2="41.0523" stroke="black"/>
<line x1="1174.5" y1="22.0523" x2="1172.5" y2="41.0523" stroke="black"/>
<line x1="1177.5" y1="23.0552" x2="1175.5" y2="41.0552" stroke="black"/>
<line x1="1180.5" y1="23.0523" x2="1178.5" y2="42.0523" stroke="black"/>
<line x1="1183.5" y1="23.0523" x2="1181.5" y2="42.0523" stroke="black"/>
<line x1="1186.5" y1="24.0552" x2="1184.5" y2="42.0552" stroke="black"/>
<line x1="1189.5" y1="24.0552" x2="1187.5" y2="42.0552" stroke="black"/>
<line x1="1192.5" y1="24.0523" x2="1190.5" y2="43.0523" stroke="black"/>
<line x1="1195.5" y1="24.0523" x2="1193.5" y2="43.0523" stroke="black"/>
<line x1="1198.5" y1="25.0552" x2="1196.5" y2="43.0552" stroke="black"/>
<line x1="1201.5" y1="25.0523" x2="1199.5" y2="44.0523" stroke="black"/>
<line x1="1213.5" y1="26.0523" x2="1211.5" y2="45.0523" stroke="black"/>
<line x1="1216.5" y1="26.0523" x2="1214.5" y2="45.0523" stroke="black"/>
<line x1="1219.5" y1="26.0523" x2="1217.5" y2="45.0523" stroke="black"/>
<line x1="1222.5" y1="27.0523" x2="1220.5" y2="46.0523" stroke="black"/>
<line x1="1225.5" y1="27.0523" x2="1223.5" y2="46.0523" stroke="black"/>
<line x1="1228.5" y1="27.0523" x2="1226.5" y2="46.0523" stroke="black"/>
<line x1="1231.5" y1="28.0552" x2="1229.5" y2="46.0552" stroke="black"/>
<line x1="1234.5" y1="28.0552" x2="1232.5" y2="46.0552" stroke="black"/>
<line x1="1237.5" y1="28.0523" x2="1235.5" y2="47.0523" stroke="black"/>
<line x1="1240.5" y1="28.0523" x2="1238.5" y2="47.0523" stroke="black"/>
<line x1="1243.5" y1="29.0552" x2="1241.5" y2="47.0552" stroke="black"/>
<line x1="1246.5" y1="29.0523" x2="1244.5" y2="48.0523" stroke="black"/>
<line x1="1249.5" y1="29.0523" x2="1247.5" y2="48.0523" stroke="black"/>
<line x1="1422.96" y1="44.4981" x2="1309.96" y2="34.4981" stroke="black"/>
<line x1="1423.5" y1="44.0523" x2="1421.5" y2="63.0523" stroke="black"/>
<line x1="1310.67" y1="34.439" x2="1308.42" y2="53.4119" stroke="black"/>
<line x1="1406.33" y1="61.5581" x2="1408.56" y2="43.5852" stroke="black"/>
<line x1="1403.33" y1="61.5233" x2="1405.5" y2="42.942" stroke="black"/>
<line x1="1400.33" y1="61.4848" x2="1402.5" y2="42.9419" stroke="black"/>
<line x1="1397.33" y1="61.4463" x2="1399.5" y2="42.9418" stroke="black"/>
<line x1="1394.5" y1="60.9443" x2="1396.58" y2="42.4376" stroke="black"/>
<line x1="1391.35" y1="60.3662" x2="1393.58" y2="42.3933" stroke="black"/>
<line x1="1388.35" y1="60.3312" x2="1390.5" y2="41.9418" stroke="black"/>
<line x1="1385.35" y1="60.2957" x2="1387.5" y2="40.9446" stroke="black"/>
<line x1="1382.5" y1="59.9444" x2="1384.59" y2="41.2842" stroke="black"/>
<line x1="1379.5" y1="59.9445" x2="1381.59" y2="41.2459" stroke="black"/>
<line x1="1376.36" y1="59.1776" x2="1378.5" y2="40.9417" stroke="black"/>
<line x1="1373.36" y1="59.1388" x2="1375.6" y2="40.166" stroke="black"/>
<line x1="1361.38" y1="57.9853" x2="1363.62" y2="39.0125" stroke="black"/>
<line x1="1358.38" y1="57.9469" x2="1360.62" y2="38.9741" stroke="black"/>
<line x1="1355.5" y1="57.9447" x2="1357.62" y2="38.9391" stroke="black"/>
<line x1="1352.39" y1="56.8703" x2="1354.5" y2="38.9414" stroke="black"/>
<line x1="1349.39" y1="56.8318" x2="1351.63" y2="37.859" stroke="black"/>
<line x1="1346.39" y1="56.7934" x2="1348.63" y2="37.8205" stroke="black"/>
<line x1="1343.5" y1="56.9448" x2="1345.63" y2="37.7856" stroke="black"/>
<line x1="1340.5" y1="55.9419" x2="1342.63" y2="37.7443" stroke="black"/>
<line x1="1337.4" y1="55.6783" x2="1339.65" y2="36.7055" stroke="black"/>
<line x1="1334.4" y1="55.6399" x2="1336.65" y2="36.667" stroke="black"/>
<line x1="1331.5" y1="55.9205" x2="1333.5" y2="36.9476" stroke="black"/>
<line x1="1328.5" y1="54.9141" x2="1330.75" y2="35.9413" stroke="black"/>
<line x1="1325.42" y1="54.5248" x2="1327.66" y2="35.5519" stroke="black"/>
<line x1="2011.5" y1="114.992" x2="2019.5" y2="628.992" stroke="black"/>
<path d="M475 434.5L585.5 417L596 478L485.5 496L475 434.5Z" fill="#D9D9D9"/>
<path d="M451 270.5L526.988 258.37L538 323L461.5 333.5L451 270.5Z" fill="#D9D9D9"/>
<path d="M830.5 44.9999L896 49.9999L889.5 127.508L824 124L830.5 44.9999Z" fill="#D9D9D9"/>
<path d="M1176.86 75.7684L1242.36 80.7684L1236 170.5L1170 166.5L1176.86 75.7684Z" fill="#D9D9D9"/>
<path d="M1170.76 183.5L1236.76 189L1236 298L1170.76 298L1170.76 183.5Z" fill="#D9D9D9"/>
<path d="M1169.71 316.5L1236 316.5L1234.95 467.321L1169.71 467.321L1169.71 316.5Z" fill="#D9D9D9"/>
<path d="M1154 486L1235.5 486L1235.5 594.5L1154 594.5L1154 486Z" fill="#D9D9D9"/>
<path d="M1319.5 498L1401 498L1401 594.5L1319.5 594.5L1319.5 498Z" fill="#D9D9D9"/>
<path d="M1418.55 497.757L1500.05 497.757L1500.05 594.256L1418.55 594.256L1418.55 497.757Z" fill="#D9D9D9"/>
<path d="M1518.55 497.757L1582 497.757L1582 594.256L1518.55 594.256L1518.55 497.757Z" fill="#D9D9D9"/>
<path d="M1599.55 497.595L1666.5 497.595L1666 594.095L1599.55 594.095L1599.55 497.595Z" fill="#D9D9D9"/>
<path d="M1682.55 498.014L1749.5 498.014L1749 594.514L1682.55 594.514L1682.55 498.014Z" fill="#D9D9D9"/>
<path d="M1765.55 481.014L1847 481.014L1847 594.5L1765.55 594.5L1765.55 481.014Z" fill="#D9D9D9"/>
<path d="M1864.55 481L1914.5 481L1914.5 596.5L1864.55 596.5L1864.55 481Z" fill="#D9D9D9"/>
<path d="M1931.83 480.979L1981.77 480.979L1981.77 596.479L1931.83 596.479L1931.83 480.979Z" fill="#D9D9D9"/>
<path d="M1931.83 319.979L1981.77 319.979L1981.77 451.5L1931.83 451.5L1931.83 319.979Z" fill="#D9D9D9"/>
<path d="M1053.99 485.757L1135.49 485.757L1135.49 594.257L1053.99 594.257L1053.99 485.757Z" fill="#D9D9D9"/>
<path d="M912.863 51.7685L1044 63.5L1037.5 141L906.363 130.769L912.863 51.7685Z" fill="#D9D9D9"/>
<path d="M1061.36 65L1159 73.5L1153.5 152L1054.86 144L1061.36 65Z" fill="#D9D9D9"/>
<path d="M744 486.5L887.5 486.5L887.5 595.5L762 595.5L744 486.5Z" fill="#D9D9D9"/>
<path d="M703 130L805.488 138.378L805.488 214L718 223.5L703 130Z" fill="#D9D9D9"/>
<path d="M721 241L804.5 231L805.5 298.5L732 307.009L721 241Z" fill="#D9D9D9"/>
<path d="M718.5 327L766 319L806.012 316L806.012 468L741.5 468L718.5 327Z" fill="#D9D9D9"/>
<path d="M376.5 108.5L530.5 83.5L541.5 151L420 170L409.5 155.5L402 148L388.5 136L379 129.5L376.5 108.5Z" fill="#D9D9D9"/>
<path d="M428.5 185.5L544 168.5L554 233L433.5 253.5L434.5 230L433.5 205.5L428.5 185.5Z" fill="#D9D9D9"/>
<path d="M486.488 513.87L596.988 496.37L607.488 557.37L495.5 557.37L486.488 513.87Z" fill="#D9D9D9"/>
<path d="M305 385.5L349 357L399.5 436L355 464L305 385.5Z" fill="#D9D9D9"/>
</svg>
